<svg id="Warstwa_1" data-name="Warstwa 1" xmlns="http://www.w3.org/2000/svg" viewBox="0 0 65.11 65.11"><title>taniec</title><circle cx="32.56" cy="32.56" r="30.56" fill="none" stroke="#ae888d" stroke-miterlimit="10" stroke-width="4"/><circle cx="32.56" cy="32.56" r="25.65" fill="none" stroke="#ae888d" stroke-miterlimit="10"/><path d="M424.58,337.72a8.65,8.65,0,0,1-.67,1.79l-.11.62a5.59,5.59,0,0,1-.7,2.73,31.53,31.53,0,0,0-1.2,3.49,7,7,0,0,0,0,1.37,5.75,5.75,0,0,1-.23,2.46s.06,1.06-.3,1.2c0,0-.42.53-.39.7s-1.23.42-1.37-.45c0,0,.33-3.07.84-3.38,0,0-.17-.53.08-.75s.14-2.21.47-3.46l.62-3.49-.45.33-.05-.42s-.79.11-.79.42a4.57,4.57,0,0,1,0,.48,5.71,5.71,0,0,1-1.4-.31,8,8,0,0,1-.7-.73l.36-.72a4.75,4.75,0,0,1-1.22-.42c-.4-.25-.23-1.06-.23-1.06s-.61-1.18-.86-.87l-1-1.4.45-.41a2.92,2.92,0,0,1-.45-4c1.62-2.37,0-.08.14-.14a8.31,8.31,0,0,0,.31-1.53l1.59-.17a25.52,25.52,0,0,1,4.5-2.88h.26s.41-1.44.65-1.42c0,0,.17-.48.35-.43l.06-.28s-.39-1-.73-1.24a3.78,3.78,0,0,0-1.53-.62.53.53,0,0,1-.5-.17,11.8,11.8,0,0,0-1,2.39,4.3,4.3,0,0,0,.08.7l-.28-.68a2.85,2.85,0,0,0-.9,1.21l-.18,1.11-.06.43s-.82-.69-.72-.95l-.22.15a3.9,3.9,0,0,1-.08-.74c0-.08-.32.2-.28.37s-.3-2.59,0-2.94a.86.86,0,0,0,0-.86,29,29,0,0,1-4.32,0l-.72,0a45.56,45.56,0,0,1-4.29-2.37,3.81,3.81,0,0,1-1.76-.39,11.6,11.6,0,0,1-1.25-.13s.05-.15.15-.13a5,5,0,0,1,.87,0c.26.08.17,0,.17,0s.19-.36-1.47-.28c0,0-.24-.19.09-.21a6,6,0,0,1,.65,0,1.61,1.61,0,0,0-.83-.07s-.28-.19.09-.25a4.1,4.1,0,0,1,1.53,0,6.63,6.63,0,0,0-1.08-.8s-.25-.27,0-.26.52.32.71.32.59.35.59.35a2.47,2.47,0,0,1,.78.43,8.09,8.09,0,0,0,1.31.73,15.74,15.74,0,0,0,2.9,1.28s1.21.45,1.4.54.74-.11.74-.11.32-.2,3.18-.19l.19-.33a12.37,12.37,0,0,1-.22-2.27c.07-.58-.6-1.43-.69-2s.54-1.32.54-1.32-.09-.78.41-.78a8.63,8.63,0,0,0,1.1-.39c0-.08,1.63-.32,2.7,1.56,0,0,.74,1.55,1.86.95a11.6,11.6,0,0,1-.15-2.36s-1-2.74-.73-3a3.63,3.63,0,0,1-.87-2c0-.15-1.16-2.7-1.16-2.7s-.26-.56.66-1.58c0,0,.2-.58.31-.6a6.78,6.78,0,0,0,.68-1.11s.06.05.06.09-.34.95-.34.95l.09.09.05,0s.26-.37.31-.35a.27.27,0,0,1,.16.2,4.16,4.16,0,0,0,1-.1s.08.18,0,.23-.95.34-.95.34l.81-.09a.08.08,0,0,1,.07.08.52.52,0,0,1,0,.13s.05.07,0,.09,0,0-.18.05a2.73,2.73,0,0,0-.37.05l-.1,0s0,.12,0,.14a.47.47,0,0,1-.14.11,1.44,1.44,0,0,1-.27.05s-.3.23-.3.28-.4.77-.64.72l.41.48s2,3.19,1.85,3.75c0,0,.88,1.36,2.2,6.76a3.54,3.54,0,0,1,2.1,2.77s1,2.68,1.08,2.91.47.37.47.37l.87,1.26s0-.8.41-.59.32.26.41.48-.17.52.15.36.45-.49.5-.49,0-.11.39.19a14.46,14.46,0,0,1,1.25,1.19s.93,1.36.86,1.66a1.68,1.68,0,0,0-.09.78c.05.13,2.92,2.16,3.2,2.62,0,0,1.52.91.18,1.81a5.51,5.51,0,0,1-1.62.54,11.51,11.51,0,0,1-3.42.8l-1.16.24s-1.65,2-2.86,1.9-1.49.63-1.49.63l-.93.43Z" transform="translate(-388.58 -295.2)" fill="#ae888d"/><path d="M431.22,331.34l1.1.34s-.86-.1-1.1.24S431.22,331.34,431.22,331.34Z" transform="translate(-388.58 -295.2)" fill="#eae9e8"/></svg>