<svg xmlns="http://www.w3.org/2000/svg" xmlns:xlink="http://www.w3.org/1999/xlink" viewBox="0 0 52.41 52.41"><defs><linearGradient id="Gradient_bez_nazwy_64" x1="2.63" y1="26.2" x2="47.77" y2="26.2" gradientUnits="userSpaceOnUse"><stop offset="0" stop-color="#65c8d0"/><stop offset="0.18" stop-color="#60c3d1"/><stop offset="0.41" stop-color="#50b6d6"/><stop offset="0.66" stop-color="#36a0dc"/><stop offset="0.92" stop-color="#1382e6"/><stop offset="1" stop-color="#0778e9"/></linearGradient><linearGradient id="Gradient_bez_nazwy_44" x1="38.7" y1="19.88" x2="40.57" y2="19.88" gradientUnits="userSpaceOnUse"><stop offset="0" stop-color="#fff"/><stop offset="0.08" stop-color="#f8fcfd"/><stop offset="0.21" stop-color="#e3f4f8"/><stop offset="0.35" stop-color="#c2e7f1"/><stop offset="0.52" stop-color="#93d5e6"/><stop offset="0.71" stop-color="#58bdd8"/><stop offset="0.9" stop-color="#11a1c7"/><stop offset="0.92" stop-color="#099ec5"/><stop offset="0.96" stop-color="#099ec5"/></linearGradient><linearGradient id="Gradient_bez_nazwy_35" x1="42.89" y1="25.9" x2="45.06" y2="25.9" gradientUnits="userSpaceOnUse"><stop offset="0" stop-color="#fff"/><stop offset="0.92" stop-color="#099ec5"/><stop offset="0.96" stop-color="#099ec5"/></linearGradient><linearGradient id="Gradient_bez_nazwy_49" x1="35.01" y1="31.74" x2="40.92" y2="31.74" gradientUnits="userSpaceOnUse"><stop offset="0" stop-color="#fff"/><stop offset="0.08" stop-color="#f7fcfd"/><stop offset="0.21" stop-color="#e0f3f8"/><stop offset="0.37" stop-color="#bae4ef"/><stop offset="0.55" stop-color="#86cfe2"/><stop offset="0.76" stop-color="#44b5d3"/><stop offset="0.92" stop-color="#099ec5"/><stop offset="0.96" stop-color="#099ec5"/></linearGradient></defs><title>diver</title><g id="Warstwa_2" data-name="Warstwa 2"><g id="Warstwa_1-2" data-name="Warstwa 1"><circle cx="26.2" cy="26.2" r="25.7" fill="none" stroke="#0778e9" stroke-miterlimit="10"/><path d="M33.05,31.68l-7.48,2.56s-2.61.83-4.29,0c0,0-6.94,0-9.79-1.1a34.6,34.6,0,0,0-4-.33c-.64.1-5.06-1.62-4.77-2.66s2.76,0,2.76,0,3,2.43,8.41.36c0,0,1.53-.21.89,1.12a10.75,10.75,0,0,0,2.61-.35S13,26.64,10,27.48s-2.9.36-2.9.36S6,27.69,5.78,28s-1.67-.74-2.07-1.28-2.31-1.92.15-2.17a25.21,25.21,0,0,0,9.06.49,1.31,1.31,0,0,1,1.52,1.68s6.11,1.47,7.24,3.44c0,0,4.52-2.83,5.16-2.67L25,27.89S22.61,23.61,23.55,23s.88-.31.88-.31l8.42-2.51s3.39-2.25,4.87-1.07c0,0,3.05-3.79,3.89,1.57l.54.25s-.1-2.36,1.08-2.76,3.35-1.13,4,1.63A4,4,0,0,1,47,21l-.19.29.49-.14s1.33.19-.35,2.26l-.69-.1.05.35s1.63-.25,1.23.64-1.23,1.57-1.92.83c0,0-.93,3.15-3.39,4l-.3.29.25.25s1.48-.52.79.8-1.09,1.12-1.09,1.12,0,.29-.49-.3c0,0-5.21,4.58-7.58.69Z" fill="url(#Gradient_bez_nazwy_64)"/><path d="M38.7,19.87s1.19-2.17,1.87.59c0,0-1.08-.15-1.23.24C39.34,20.7,39,19.92,38.7,19.87Z" fill="url(#Gradient_bez_nazwy_44)"/><path d="M45.05,25c.09,0-1.33,2.51-2.16,2.76a12,12,0,0,0,.59-3.35l.15-.44S44.27,25.48,45.05,25Z" fill="url(#Gradient_bez_nazwy_35)"/><path d="M35,32.37s4-.62,5.91-1.86C40.92,30.51,37,34.43,35,32.37Z" fill="url(#Gradient_bez_nazwy_49)"/></g></g></svg>