<svg id="Warstwa_1" data-name="Warstwa 1" xmlns="http://www.w3.org/2000/svg" viewBox="0 0 65.24 65.24"><title>nurkowanie</title><circle cx="32.62" cy="32.62" r="30.62" fill="none" stroke="#ae888d" stroke-miterlimit="10" stroke-width="4"/><circle cx="32.62" cy="32.62" r="25.7" fill="none" stroke="#ae888d" stroke-miterlimit="10"/><path d="M427.62,333.49,420.14,336s-2.61.84-4.28,0c0,0-6.94,0-9.8-1.09a34.39,34.39,0,0,0-4-.33c-.64.1-5.07-1.63-4.78-2.66s2.76,0,2.76,0,3.05,2.43,8.41.35c0,0,1.53-.2.89,1.13a10.75,10.75,0,0,0,2.61-.35s-4.43-4.65-7.43-3.8-2.91.36-2.91.36-1.08-.15-1.28.14-1.67-.73-2.06-1.28-2.32-1.91.14-2.16a25.25,25.25,0,0,0,9.06.49,1.31,1.31,0,0,1,1.52,1.67s6.11,1.48,7.24,3.45c0,0,4.53-2.83,5.17-2.67l-1.87.41s-2.37-4.29-1.43-4.88.88-.3.88-.3l8.42-2.52s3.4-2.25,4.87-1.06c0,0,3-3.79,3.89,1.57l.54.25s-.1-2.37,1.08-2.76,3.35-1.13,4,1.62a4,4,0,0,1-.3,1.19l-.19.29.49-.15s1.33.2-.34,2.27l-.69-.1.05.34s1.62-.24,1.23.64-1.23,1.58-1.92.84c0,0-.94,3.15-3.4,4l-.29.29.24.25s1.48-.52.79.79-1.08,1.13-1.08,1.13,0,.29-.5-.3c0,0-5.21,4.58-7.57.69Z" transform="translate(-388.16 -295.39)" fill="#ae888d" stroke="#ae888d" stroke-miterlimit="10" stroke-width="0.5"/><path d="M433.28,321.67s1.18-2.16,1.87.59c0,0-1.09-.14-1.23.25C433.92,322.51,433.57,321.72,433.28,321.67Z" transform="translate(-388.16 -295.39)" fill="#eae9e8"/><path d="M439.62,326.84c.09,0-1.32,2.51-2.16,2.76a12,12,0,0,0,.59-3.35l.15-.44S438.84,327.28,439.62,326.84Z" transform="translate(-388.16 -295.39)" fill="#eae9e8"/><path d="M429.59,334.17s4-.62,5.9-1.86C435.49,332.31,431.55,336.24,429.59,334.17Z" transform="translate(-388.16 -295.39)" fill="#eae9e8"/></svg>