<svg id="Warstwa_1" data-name="Warstwa 1" xmlns="http://www.w3.org/2000/svg" viewBox="0 0 65.24 65.24"><title>rysunek</title><circle cx="32.62" cy="32.62" r="30.62" fill="none" stroke="#ae888d" stroke-miterlimit="10" stroke-width="4"/><circle cx="32.62" cy="32.62" r="25.7" fill="none" stroke="#ae888d" stroke-miterlimit="10"/><path d="M420.18,314.64c-1.8,2.66-19.54,14.94-19.54,14.94l16.68,17.85s17-13.87,19.21-16.39,3.46-1.46,3.46-1.46l-15.34-19.5Z" transform="translate(-388.96 -295.39)" fill="none" stroke="#ae888d" stroke-miterlimit="10"/><path d="M418.55,337.26c-6,1.14-8.57-3.56-8.57-2s1.24-1.48-.6-3.19-3-.62-.05-2.51,4.26.42,5-.84-1.84-5.67,0-5.67" transform="translate(-388.96 -295.39)" fill="none" stroke="#ae888d" stroke-miterlimit="10" stroke-width="0.25"/><path d="M436.19,322.44l-14.31,14.71-5.07.65.63-5.21,14.32-14.71Zm.64-.65,2.05-2.11-4.44-4.56-2.05,2.11ZM440.9,315l-1.9-1.95a1.76,1.76,0,0,0-2.54,0l-1.38,1.42,4.44,4.56,1.38-1.42A1.88,1.88,0,0,0,440.9,315Z" transform="translate(-388.96 -295.39)" fill="#ae888d"/></svg>