<svg id="Warstwa_1" data-name="Warstwa 1" xmlns="http://www.w3.org/2000/svg" viewBox="0 0 65.24 65.24"><title>gry</title><circle cx="32.62" cy="32.62" r="30.62" fill="none" stroke="#ae888d" stroke-miterlimit="10" stroke-width="4"/><circle cx="32.62" cy="32.62" r="25.7" fill="none" stroke="#ae888d" stroke-miterlimit="10"/><path d="M246.58,195.33h0l-2.66-11.59a6.27,6.27,0,0,0-11-1.85H222.75a6.28,6.28,0,0,0-11,1.85l-2.66,11.59h0a7.58,7.58,0,0,0,14.52,4.26h8.46a7.58,7.58,0,0,0,14.52-4.26ZM220.25,192H219v1.27a1.27,1.27,0,0,1-2.53,0V192H215.2a1.26,1.26,0,1,1,0-2.52h1.26v-1.27a1.27,1.27,0,0,1,2.53,0v1.27h1.26a1.26,1.26,0,0,1,0,2.52Zm16.43,1.27a1.27,1.27,0,1,1,1.26-1.27A1.27,1.27,0,0,1,236.68,193.27Zm0-3.79a1.27,1.27,0,1,1,1.26-1.27A1.27,1.27,0,0,1,236.68,189.48Zm3.79,3.79a1.27,1.27,0,1,1,1.26-1.27A1.27,1.27,0,0,1,240.47,193.27Zm0-3.79a1.27,1.27,0,1,1,1.26-1.27A1.27,1.27,0,0,1,240.47,189.48Z" transform="translate(-195.21 -161.34)" fill="#ae888d"/></svg>