<svg xmlns="http://www.w3.org/2000/svg" xmlns:xlink="http://www.w3.org/1999/xlink" viewBox="0 0 52.41 52.41"><defs><linearGradient id="Gradient_bez_nazwy_75" x1="7.25" y1="24.25" x2="45.16" y2="24.25" gradientUnits="userSpaceOnUse"><stop offset="0" stop-color="#65c8d0"/><stop offset="0.09" stop-color="#57bcd4"/><stop offset="0.35" stop-color="#359fdd"/><stop offset="0.6" stop-color="#1b89e4"/><stop offset="0.82" stop-color="#0c7ce8"/><stop offset="1" stop-color="#0778e9"/></linearGradient></defs><title>games</title><g id="Warstwa_2" data-name="Warstwa 2"><g id="Warstwa_1-2" data-name="Warstwa 1"><circle cx="26.2" cy="26.2" r="25.7" fill="none" stroke="#0778e9" stroke-miterlimit="10"/><path d="M45,27.57h0L42.29,16a6.26,6.26,0,0,0-11-1.84H21.12a6.27,6.27,0,0,0-11,1.84L7.45,27.57h0a8.27,8.27,0,0,0-.2,1.73A7.58,7.58,0,0,0,22,31.83h8.47A7.58,7.58,0,0,0,45.16,29.3,7.66,7.66,0,0,0,45,27.57ZM18.62,24.25H17.36v1.26a1.27,1.27,0,0,1-2.53,0V24.25H13.57a1.27,1.27,0,1,1,0-2.53h1.26V20.45a1.27,1.27,0,0,1,2.53,0v1.27h1.26a1.27,1.27,0,1,1,0,2.53Zm16.43,1.26a1.27,1.27,0,1,1,1.26-1.26A1.26,1.26,0,0,1,35.05,25.51Zm0-3.79a1.27,1.27,0,1,1,1.26-1.27A1.26,1.26,0,0,1,35.05,21.72Zm3.79,3.79a1.27,1.27,0,1,1,1.26-1.26A1.26,1.26,0,0,1,38.84,25.51Zm0-3.79a1.27,1.27,0,1,1,1.26-1.27A1.26,1.26,0,0,1,38.84,21.72Z" fill="url(#Gradient_bez_nazwy_75)"/></g></g></svg>