<svg id="Warstwa_1" data-name="Warstwa 1" xmlns="http://www.w3.org/2000/svg" viewBox="0 0 22.67 19.83"><title>skrzynka</title><path d="M427.46,319.78h-2.13v-1.42a.71.71,0,0,0-.71-.71h-4.25a.7.7,0,0,0-.7.71v1.42h-5a5,5,0,0,0-5,5v7.79a.71.71,0,0,0,.71.71h7.79v3.54a.71.71,0,0,0,.71.71h4.25a.71.71,0,0,0,.71-.71v-3.54h7.79a.71.71,0,0,0,.71-.71v-7.79A5,5,0,0,0,427.46,319.78Zm-6.38-.71h2.84v2.12H422.5v4.25h-1.42Zm-2.83,12.75h-7.08v-7.08a3.54,3.54,0,1,1,7.08,0Zm4.25,4.25h-2.83v-3.54h2.83Zm8.5-4.25H419v-7.08a4.28,4.28,0,0,0-1.9-3.55h3.31v5h2.84V321.9h1.41v-.71h2.89a3.54,3.54,0,0,1,3.49,3.54ZM413.29,324h2.83v.71h-2.83Z" transform="translate(-409.75 -317.65)" fill="#0778e9"/></svg>