<svg id="Warstwa_1" data-name="Warstwa 1" xmlns="http://www.w3.org/2000/svg" viewBox="0 0 20.89 20.88"><title>telefon</title><path d="M428.22,317.37a.69.69,0,0,0-.52-.24.67.67,0,0,0-.53.25l-4,4.83a.69.69,0,0,0-.08.76,10,10,0,0,1,1.22,3c0,.89-3.86,4.82-4.82,4.82h0a9.18,9.18,0,0,1-3-1.21.66.66,0,0,0-.33-.09.69.69,0,0,0-.43.16l-4.84,4a.68.68,0,0,0,0,1c2.23,2.09,4.49,3.33,7.17,3.33,2.9,0,13.51-10.61,13.51-13.51C431.53,321.83,430.3,319.74,428.22,317.37Zm-.52,1.5c.29.34.53.67.76,1l-3.6,3.6c-.11-.22-.23-.46-.37-.72ZM416.24,331l.72.37L413.34,335c-.32-.23-.65-.48-1-.76Zm8.65.4c-3.53,3.53-6.19,5.23-6.87,5.27a7.45,7.45,0,0,1-4.11-1.28l3.71-3.72a4.56,4.56,0,0,0,1.85.49h0c.33,0,1.35,0,4-2.72,2.24-2.32,2.22-3.12,2.21-3.51a4.69,4.69,0,0,0-.5-1.79l3.7-3.7a7.19,7.19,0,0,1,1.3,4.08C430.13,325.19,428.42,327.85,424.89,331.38Z" transform="translate(-410.64 -317.13)" fill="#ae888d"/></svg>