<svg xmlns="http://www.w3.org/2000/svg" xmlns:xlink="http://www.w3.org/1999/xlink" viewBox="0 0 59.36 52.71"><defs><linearGradient id="Gradient_bez_nazwy_78" x1="10.18" y1="22.18" x2="53.98" y2="47.47" gradientUnits="userSpaceOnUse"><stop offset="0" stop-color="#65c8d0"/><stop offset="0.09" stop-color="#4cb3d7"/><stop offset="0.21" stop-color="#339ddd"/><stop offset="0.34" stop-color="#1f8de3"/><stop offset="0.48" stop-color="#1181e6"/><stop offset="0.67" stop-color="#097ae8"/><stop offset="1" stop-color="#0778e9"/></linearGradient></defs><title>skier</title><g id="Warstwa_2" data-name="Warstwa 2"><g id="Warstwa_1-2" data-name="Warstwa 1"><circle cx="29.68" cy="26.36" r="25.86" fill="none" stroke="#0778e9" stroke-miterlimit="10"/><path d="M37.51,13.49,57.92,36.43h.66a.5.5,0,0,1,0,.66l.78,1.06-1-.76s-.46.16-.65,0,0-.76,0-.76L37.15,14a1.94,1.94,0,0,1-.45.55s.16,3.18-2,2.34a4.83,4.83,0,0,0-1.33.54,7.55,7.55,0,0,1-1.75-.24,2.91,2.91,0,0,0-1.25-.06,6.25,6.25,0,0,1-2.49-.56s0,5.32-.38,5.92a.86.86,0,0,0,0,1.05.56.56,0,0,1,.22.73c-.22.49,1,.27,2.49,4.06a2.61,2.61,0,0,0,1.62,1.35s7.3,5.74,8.82,8.12l-.16.75.75.38v.65l2.1.38s.82.65-1.77,2.49c0,0-.33,1-2.49-.76,0,0-.76-.86-1.46-.81l-.7,0s.75.27-.49,1.57-3.25-.76-4.17-1.4c0,0-.75-1.19-1.29-1.36s-.65-.21-.38-.7a3.94,3.94,0,0,1-3.68-1.78s-.81.05-2.16-1.95a2.16,2.16,0,0,1-1.41-2.65,5.54,5.54,0,0,1-2.65-1c-1.19-.92-1.62-.49-1.62-.49s-2-1.13-1.79-2.59c0,0-.59-1.25-.81-1.09s0,1.3,0,1.3.4.65-.1,1,.42,1.08.42,1.08.33,2.81-1.29,2.81-1.79-.32-1.79-.32L1.65,42.39s.16.58,0,.81-.55.28-.87-.27l-.78.5.64-.7S.31,42.08.71,42a1.09,1.09,0,0,1,.63.08l12.23-9.21s-1-1,.65-2.11c0,0-.09-.45-.42-.52V28.56a5,5,0,0,1-.88-3.75s-.09-1-.4-1.28-.12-2.07.27-2.56a.52.52,0,0,0-.09-.81,8.29,8.29,0,0,1,1-4,12.76,12.76,0,0,1,3.73-3.06S16.79,9.69,19.52,9c0,0-.44-4,3-4.12,0,0,3.43.15,3.18,3.07h.23V9.54h-.23l0,1-.22,0,0,.8.34.39a7.56,7.56,0,0,1,1.62-.11c.24.11.11.53.11.53a.81.81,0,0,0,.8-.13c.41-.31,2.07.54,3.06.52a2.59,2.59,0,0,1,1.14.45c.3.33,1-.18,1-.18l.53-.18s-.24-1.62,0-1.51.76-1.35.76-1.35.13-.53,1.26.29a11.6,11.6,0,0,1,1.59,1.29.87.87,0,0,1-.16,1.05Z" fill="url(#Gradient_bez_nazwy_78)"/></g></g></svg>