<svg id="Warstwa_1" data-name="Warstwa 1" xmlns="http://www.w3.org/2000/svg" viewBox="0 0 65.6 65.6"><title>narty</title><circle cx="32.8" cy="32.8" r="30.8" fill="none" stroke="#ae888d" stroke-miterlimit="10" stroke-width="4"/><circle cx="32.8" cy="32.8" r="25.86" fill="none" stroke="#ae888d" stroke-miterlimit="10"/><path d="M430,314.13l22.36,25.13h.73a.56.56,0,0,1,0,.73l.85,1.15-1.09-.83s-.51.18-.71,0,0-.83,0-.83l-22.53-24.83s-.29.5-.5.6c0,0,.18,3.49-2.19,2.57a5.21,5.21,0,0,0-1.45.59,8.22,8.22,0,0,1-1.93-.26,3.09,3.09,0,0,0-1.36-.06,6.8,6.8,0,0,1-2.73-.62s0,5.83-.41,6.49a.92.92,0,0,0,0,1.15.61.61,0,0,1,.23.8c-.23.54,1.07.3,2.73,4.45a2.88,2.88,0,0,0,1.78,1.48s8,6.28,9.66,8.89l-.18.83.83.41v.72l2.3.41s.9.71-1.94,2.73c0,0-.36,1.12-2.73-.83,0,0-.83-.95-1.6-.89l-.77.06s.83.29-.54,1.72-3.55-.83-4.56-1.55c0,0-.83-1.3-1.42-1.48s-.71-.23-.42-.77a4.3,4.3,0,0,1-4-1.95s-.89.06-2.37-2.14a2.36,2.36,0,0,1-1.54-2.9,6,6,0,0,1-2.9-1.13c-1.31-1-1.78-.53-1.78-.53s-2.19-1.25-2-2.85c0,0-.65-1.36-.89-1.18s0,1.42,0,1.42.45.71-.1,1.07.46,1.18.46,1.18.36,3.09-1.42,3.09-2-.36-2-.36l-13.21,10s.17.63,0,.88-.6.3-.95-.29l-.86.54.7-.77s-.36-.71.08-.76a1.25,1.25,0,0,1,.68.1l13.4-10.09s-1.12-1.11.72-2.32c0,0-.1-.49-.46-.57v-1.88a5.54,5.54,0,0,1-1-4.11s-.1-1.14-.43-1.4-.14-2.27.29-2.8a.57.57,0,0,0-.09-.89,9.12,9.12,0,0,1,1.06-4.41,14.22,14.22,0,0,1,4.09-3.36s-.67-3.71,2.31-4.5c0,0-.47-4.36,3.26-4.51,0,0,3.76.16,3.48,3.36h.26v1.78H417l0,1.07-.24,0,0,.87.38.43a7.67,7.67,0,0,1,1.78-.12c.25.12.12.58.12.58a.88.88,0,0,0,.86-.14c.46-.34,2.28.59,3.36.57a2.84,2.84,0,0,1,1.25.49c.33.36,1.12-.19,1.12-.19l.58-.2s-.26-1.78,0-1.66.83-1.48.83-1.48.13-.57,1.38.31a12.63,12.63,0,0,1,1.74,1.43.94.94,0,0,1-.18,1.14Z" transform="translate(-388.58 -295.21)" fill="#ae888d"/></svg>