<svg xmlns="http://www.w3.org/2000/svg" xmlns:xlink="http://www.w3.org/1999/xlink" viewBox="0 0 52.41 52.41"><defs><linearGradient id="Gradient_bez_nazwy_75" x1="4" y1="13.06" x2="43.93" y2="13.06" gradientUnits="userSpaceOnUse"><stop offset="0" stop-color="#65c8d0"/><stop offset="0.09" stop-color="#57bcd4"/><stop offset="0.35" stop-color="#359fdd"/><stop offset="0.6" stop-color="#1b89e4"/><stop offset="0.82" stop-color="#0c7ce8"/><stop offset="1" stop-color="#0778e9"/></linearGradient><linearGradient id="Gradient_bez_nazwy_77" x1="22.98" y1="37.13" x2="32.63" y2="42.7" gradientUnits="userSpaceOnUse"><stop offset="0" stop-color="#65c8d0"/><stop offset="0.27" stop-color="#49b0d8"/><stop offset="0.76" stop-color="#1988e4"/><stop offset="1" stop-color="#0778e9"/></linearGradient></defs><title>sky-diver</title><g id="Warstwa_2" data-name="Warstwa 2"><g id="Warstwa_1-2" data-name="Warstwa 1"><circle cx="26.2" cy="26.2" r="25.7" fill="none" stroke="#0778e9" stroke-miterlimit="10"/><path d="M10.86,20.44c0,.56-.82,0-.95.11s-.09.23-.21.3-.42-.19-.92-.2a1.69,1.69,0,0,1-.55,0c-.19,0-.23-.13-.37-.19-.42-.2-.66.15-1.16,0-.32-.07-.29-.23-.73-.37a3,3,0,0,0-.72-.1c-.68-.11-1-1-1.18-1.55A2.25,2.25,0,0,1,4.19,17c.23-.49.75-.67.78-.88C5.19,15,6,14.65,6.9,14.4a2.76,2.76,0,0,1,1.41-1.94,1.8,1.8,0,0,1,.55-.16s.17-1.06,2-1.16a2.12,2.12,0,0,1,1.72-1.55,3.12,3.12,0,0,1,2.53-.94s.41-.9,2.16-1.06c0,0,1.49-1,2.64-.45a2.84,2.84,0,0,1,2.34-.76,2.44,2.44,0,0,1,2.41-.24.3.3,0,0,0,.28,0,2.16,2.16,0,0,1,2.18-.58,1.41,1.41,0,0,0,.58-.17c.45-.19,1.66-.22,2,.32a.41.41,0,0,0,.35-.09,2.16,2.16,0,0,1,2-.19,3.26,3.26,0,0,0,.77,0,2.49,2.49,0,0,1,1.8.59.41.41,0,0,0,.69,0,2.68,2.68,0,0,1,2,.34s1.94.09,2.22,1.19c0,0,0,.15.24.14a2.29,2.29,0,0,1,2.09.8s1.76.42,2,1.49a8.41,8.41,0,0,1-.11,2.6,16.84,16.84,0,0,1-1.16,1.68,2.77,2.77,0,0,1-.79.32,2.51,2.51,0,0,1-1-1.28s-1.62-.16-1.7-.34-.34,0-.34.07-.65-.21-.59-.33-.35,0-.35,0l-.52-.19c-.2-.07-.76-.12-.88-.15s-.07-.16-.4-.16a2.88,2.88,0,0,1-.53,0,8.49,8.49,0,0,1-2.19-.84c-.2-.29-1.66.25-2.16-.37,0,0-.81.09-1-.1s-.84.13-.84.13l-.62,0s-.29.27-.52.24a5.49,5.49,0,0,0-1.21,0,7.8,7.8,0,0,1-1.25.33l-.6.46A1.16,1.16,0,0,0,24,11.69a2.46,2.46,0,0,1-1.06.08s-.46.22-.49.31a2.05,2.05,0,0,1-1.05.15c-.21-.07-.31,0-.68.34a2.73,2.73,0,0,1-1.38.49c-.06,0-.15.73-1.66,1,0,0-.58,1.22-1.11,1.4l-.06.29s-3,1.26-3.35,2A3.38,3.38,0,0,0,10.86,20.44Z" fill="url(#Gradient_bez_nazwy_75)"/><path d="M24.84,34.14A27.56,27.56,0,0,1,29.5,33c.73.12,1.08.36,1.12.73a1.06,1.06,0,0,1,0,.45,14.76,14.76,0,0,1,1.1,1.53c.06.22.43.84-1.53,2.06l-.06.92s.75.92.69,1.33a.54.54,0,0,1-.55.51c-.12,0-.3.22-.3.22s0,2.12-.47,1.92a3.73,3.73,0,0,1,.43,1.69c-.09.64-.25,1.23-.13,1.37s.45.78.37.84a8.55,8.55,0,0,1-.78.51.57.57,0,0,0-.08.61c.13.22,0,.94-.16.94s-.73,0-.69-1c0,0-.3-.88-.15-1s-1.22-1.12-1.3-1.9-.21-.63-.21-.63a2.15,2.15,0,0,1-.06-1.35c.21-.69.31-2.06.41-2.35s-.45-1.57-1.29-1.63S24,38.51,24,38.24s.14-3.08.14-3.08a5.2,5.2,0,0,1,.57-.59C24.74,34.57,24.84,34.14,24.84,34.14Z" fill="url(#Gradient_bez_nazwy_77)"/><path d="M25.07,35.57s-.52,1.28-.18,1.89c.22.37,1.34-.14,1.34-.14l-.16-1S25.33,35.44,25.07,35.57Z" fill="#fff"/><path d="M30.13,34.71s-.63.66-.63.85a6.84,6.84,0,0,0,0,.91,2.36,2.36,0,0,0,1-.37C30.73,35.89,30.18,34.69,30.13,34.71Z" fill="#fff"/><polyline points="10.86 20.44 24.84 34.14 13.12 17.76" fill="none" stroke="#0778e9" stroke-miterlimit="10" stroke-width="0.25"/><polyline points="25.08 11.98 24.78 34.37 22.41 12.08" fill="none" stroke="#0778e9" stroke-miterlimit="10" stroke-width="0.25"/><polyline points="16.47 15.76 24.91 34.14 26.68 11.26" fill="none" stroke="#0778e9" stroke-miterlimit="10" stroke-width="0.25"/><line x1="19.17" y1="13.25" x2="24.9" y2="34.14" fill="none" stroke="#0778e9" stroke-miterlimit="10" stroke-width="0.25"/><polyline points="29.48 10.93 29.65 33.05 31.44 11.26" fill="none" stroke="#0778e9" stroke-miterlimit="10" stroke-width="0.25"/><polyline points="33.16 11.28 29.66 32.87 35.5 12.2" fill="none" stroke="#0778e9" stroke-miterlimit="10" stroke-width="0.25"/><polyline points="38.77 13.06 29.66 33.26 41.94 14.29" fill="none" stroke="#0778e9" stroke-miterlimit="10" stroke-width="0.25"/></g></g></svg>